<?xml version="1.0" standalone="no"?>
<!DOCTYPE svg PUBLIC "-//W3C//DTD SVG 1.1//EN" "http://www.w3.org/Graphics/SVG/1.1/DTD/svg11.dtd">
<svg width="225px" height="51px" version="1.1" xmlns="http://www.w3.org/2000/svg" xmlns:xlink="http://www.w3.org/1999/xlink" xml:space="preserve" style="fill-rule:evenodd;clip-rule:evenodd;stroke-linejoin:round;stroke-miterlimit:1.41421;">
    <g>
        <g id="Layer1">
            <g>
                <path d="M26.6927,5.91797L2.75065,5.91797L7.55208,0.23763L22.3796,0.221354C25.2875,0.221354 26.7415,1.78928 26.7415,4.92513C26.7415,5.2398 26.7253,5.57075 26.6927,5.91797ZM26.4648,8.13151C26.4648,9.5638 25.6022,10.6109 23.877,11.2728C24.5171,12.347 24.8589,12.9275 24.9023,13.0143C25.1628,13.5677 25.293,14.2784 25.293,15.1465C25.293,15.2333 25.2821,15.4557 25.2604,15.8138C25.1302,17.9948 24.2513,19.7689 22.6237,21.1361C21.3325,22.2211 19.949,22.9481 18.4733,23.3171L0.276693,23.2845L4.70378,8.13151L26.4648,8.13151ZM15.9668,16.0091C15.9668,15.3255 15.7335,14.9457 15.2669,14.8698L10.0911,14.8698L9.4401,17.1973L14.6159,17.1973C14.9306,17.1973 15.2344,17.0752 15.5273,16.8311C15.8203,16.5869 15.9668,16.3129 15.9668,16.0091Z" style="fill:rgb(211,46,45);fill-rule:nonzero;"/>
                <path d="M40.6087,0.335286L38.9648,5.88542L30.8919,5.88542L32.4219,0.384115L40.6087,0.335286ZM46.8913,17.6204L42.2363,23.2845L26.0254,23.2845L30.3223,8.09896L38.4115,8.09896L35.7422,17.5879L46.8913,17.6204Z" style="fill:rgb(211,46,45);fill-rule:nonzero;"/>
                <path d="M61.5885,5.86914L60.3516,0.335286L51.9857,0.335286L47.054,5.86914L61.5885,5.86914ZM54.4922,13.8932L56.8685,23.3822L65.2344,23.3822L62.028,8.09896L45.8008,8.09896L40.7878,13.9095L54.4922,13.8932Z" style="fill:rgb(211,46,45);fill-rule:nonzero;"/>
                <path d="M89.9251,5.91797L66.8294,5.91797L70.4102,0.335286L83.8542,0.335286C85.3082,0.335286 86.6645,0.899523 87.9232,2.02799C89.2036,3.18902 89.8709,4.48568 89.9251,5.91797ZM90.3483,8.09896C90.3483,12.0161 89.5888,15.0868 88.0697,17.3112C86.8544,19.0907 85.7422,20.3602 84.7331,21.1198C82.7257,22.628 80.2083,23.3822 77.181,23.3822L63.9323,23.3822L68.2943,8.09896L76.5137,8.09896L73.7467,17.4089C74.2676,17.615 74.8264,17.7181 75.4232,17.7181C76.5408,17.7181 77.6964,17.3817 78.89,16.709C80.8322,15.6131 82.1018,14.0451 82.6986,12.0052C83.0132,10.9418 83.1923,9.63976 83.2357,8.09896L90.3483,8.09896Z" style="fill:rgb(211,46,45);fill-rule:nonzero;"/>
                <path d="M115.137,0.335286L113.656,5.91797L91.9434,5.91797L95.5241,0.335286L115.137,0.335286ZM112.972,8.09896L111.361,14.1699L100.553,14.1699L99.6582,17.3112L110.417,17.3112L108.805,23.2845L89.2415,23.2845L93.3105,8.09896L112.972,8.09896Z" style="fill:rgb(211,46,45);fill-rule:nonzero;"/>
            </g>
            <g>
                <path d="M93.4657,33.1287L67.6356,33.1287L71.1675,27.5948L90.1291,27.5948C90.6391,27.5948 91.1654,27.7793 91.7079,28.1482C92.2179,28.4954 92.6031,28.9078 92.8635,29.3852C93.265,30.123 93.4657,31.3709 93.4657,33.1287ZM93.0751,35.3585C92.8906,36.7148 92.1148,37.9898 90.7476,39.1834C90.1074,39.7367 89.5866,40.0894 89.1851,40.2413C89.6951,41.0334 89.9501,41.8689 89.9501,42.7478C89.9501,43.2686 89.8741,43.9956 89.7222,44.9288C89.6246,45.5147 89.0386,47.3865 87.9644,50.544L80.4937,50.544L83.163,41.3806L75.3017,41.3806L72.4696,50.544L64.706,50.544L69.1819,35.3585L93.0751,35.3585Z" style="fill:rgb(210,47,43);fill-rule:nonzero;"/>
                <path d="M117.994,27.7088L116.447,33.1775L108.83,33.1775L110.377,27.6925L117.994,27.7088ZM104.127,27.7088L102.613,33.1775L95.0933,33.1775L96.6721,27.7088L104.127,27.7088ZM115.91,35.3585L111.695,50.5766L99.5041,50.5929C95.6847,50.5929 93.3192,49.4481 92.4078,47.1586C92.1582,46.5293 92.0334,45.9108 92.0334,45.3032C92.0334,44.9342 92.0768,44.5924 92.1636,44.2778L94.6213,35.3585L102.027,35.3422L99.6669,43.6267C99.5584,44.0065 99.5041,44.2832 99.5041,44.4568C99.5041,44.9017 99.7266,45.1892 100.171,45.3194L105.494,45.3194L108.309,35.3585L115.91,35.3585Z" style="fill:rgb(210,47,43);fill-rule:nonzero;"/>
                <path d="M144.426,27.5948L142.782,33.1449L120.94,33.1449L122.518,27.5948L130.087,27.5948L135.018,32.2823L136.207,27.5948L144.426,27.5948ZM142.326,35.3585L138.274,50.544L129.908,50.544L132.479,41.3318L127.597,36.9047L123.723,50.5929L116.106,50.5929L120.272,35.3585L142.326,35.3585Z" style="fill:rgb(210,47,43);fill-rule:nonzero;"/>
                <path d="M170.37,27.5948L168.726,33.1449L146.884,33.1449L148.462,27.5948L156.031,27.5948L160.962,32.2823L162.151,27.5948L170.37,27.5948ZM168.27,35.3585L164.218,50.544L155.852,50.544L158.423,41.3318L153.541,36.9047L149.667,50.5929L142.05,50.5929L146.216,35.3585L168.27,35.3585Z" style="fill:rgb(210,47,43);fill-rule:nonzero;"/>
                <path d="M193.498,27.5948L192.017,33.1775L170.305,33.1775L173.886,27.5948L193.498,27.5948ZM191.334,35.3585L189.722,41.4295L178.915,41.4295L178.02,44.5707L188.778,44.5707L187.167,50.544L167.603,50.544L171.672,35.3585L191.334,35.3585Z" style="fill:rgb(210,47,43);fill-rule:nonzero;"/>
                <path d="M220.484,33.1287L194.654,33.1287L198.186,27.5948L217.147,27.5948C217.657,27.5948 218.184,27.7793 218.726,28.1482C219.236,28.4954 219.621,28.9078 219.882,29.3852C220.283,30.123 220.484,31.3709 220.484,33.1287ZM220.093,35.3585C219.909,36.7148 219.133,37.9898 217.766,39.1834C217.126,39.7367 216.605,40.0894 216.203,40.2413C216.713,41.0334 216.968,41.8689 216.968,42.7478C216.968,43.2686 216.892,43.9956 216.74,44.9288C216.643,45.5147 216.057,47.3865 214.983,50.544L207.512,50.544L210.181,41.3806L202.32,41.3806L199.488,50.544L191.724,50.544L196.2,35.3585L220.093,35.3585Z" style="fill:rgb(210,47,43);fill-rule:nonzero;"/>
            </g>
        </g>
    </g>
</svg>
